<?xml version="1.0" encoding="UTF-8" standalone="no"?>
<!DOCTYPE svg PUBLIC "-//W3C//DTD SVG 1.1//EN"
 "http://www.w3.org/Graphics/SVG/1.1/DTD/svg11.dtd">
<!-- Generated by graphviz version 2.36.0 (20140111.2315)
 -->
<!-- Title: G Pages: 1 -->
<svg width="510pt" height="600pt"
 viewBox="0.00 0.00 510.00 600.00" xmlns="http://www.w3.org/2000/svg" xmlns:xlink="http://www.w3.org/1999/xlink">
<g id="graph0" class="graph" transform="scale(1 1) rotate(0) translate(4 596)">
<title>G</title>
<polygon fill="white" stroke="none" points="-4,4 -4,-596 506,-596 506,4 -4,4"/>
<g id="clust1" class="cluster"><title>cluster_Global</title>
<path fill="none" stroke="gray" d="M20,-8C20,-8 482,-8 482,-8 488,-8 494,-14 494,-20 494,-20 494,-572 494,-572 494,-578 488,-584 482,-584 482,-584 20,-584 20,-584 14,-584 8,-578 8,-572 8,-572 8,-20 8,-20 8,-14 14,-8 20,-8"/>
<text text-anchor="middle" x="251" y="-571.2" font-family="Times,serif" font-size="11.00" fill="gray">Global</text>
</g>
<g id="clust2" class="cluster"><title>cluster_\eStadium</title>
<path fill="none" stroke="gray" d="M28,-16C28,-16 474,-16 474,-16 480,-16 486,-22 486,-28 486,-28 486,-544 486,-544 486,-550 480,-556 474,-556 474,-556 28,-556 28,-556 22,-556 16,-550 16,-544 16,-544 16,-28 16,-28 16,-22 22,-16 28,-16"/>
<text text-anchor="middle" x="251" y="-543.2" font-family="Times,serif" font-size="11.00" fill="gray">eStadium</text>
</g>
<g id="clust3" class="cluster"><title>cluster_\eStadium\Baseball</title>
<path fill="none" stroke="gray" d="M36,-24C36,-24 466,-24 466,-24 472,-24 478,-30 478,-36 478,-36 478,-516 478,-516 478,-522 472,-528 466,-528 466,-528 36,-528 36,-528 30,-528 24,-522 24,-516 24,-516 24,-36 24,-36 24,-30 30,-24 36,-24"/>
<text text-anchor="middle" x="251" y="-515.2" font-family="Times,serif" font-size="11.00" fill="gray">Baseball</text>
</g>
<!-- \\eStadium\\Baseball\\Player -->
<g id="node1" class="node"><title>\\eStadium\\Baseball\\Player</title>
<polygon fill="none" stroke="black" points="252.5,-446 195.5,-446 195.5,-410 252.5,-410 252.5,-446"/>
<text text-anchor="middle" x="224" y="-425.2" font-family="Courier,monospace" font-size="11.00">Player</text>
</g>
<!-- \\eStadium\\Baseball\\IPlayer -->
<g id="node13" class="node"><title>\\eStadium\\Baseball\\IPlayer</title>
<polygon fill="none" stroke="black" points="96,-446 32,-446 32,-410 96,-410 96,-446"/>
<text text-anchor="middle" x="64" y="-425.2" font-family="Courier,monospace" font-size="11.00">IPlayer</text>
</g>
<!-- \\eStadium\\Baseball\\Player&#45;&gt;\\eStadium\\Baseball\\IPlayer -->
<g id="edge1" class="edge"><title>\\eStadium\\Baseball\\Player&#45;&gt;\\eStadium\\Baseball\\IPlayer</title>
<path fill="none" stroke="black" stroke-dasharray="1,5" d="M195.479,-428C170.94,-428 134.664,-428 106.587,-428"/>
<polygon fill="none" stroke="black" points="106.269,-424.5 96.2688,-428 106.269,-431.5 106.269,-424.5"/>
</g>
<!-- \\eStadium\\Baseball\\Venue -->
<g id="node2" class="node"><title>\\eStadium\\Baseball\\Venue</title>
<polygon fill="none" stroke="black" points="438,-500 384,-500 384,-464 438,-464 438,-500"/>
<text text-anchor="middle" x="411" y="-479.2" font-family="Courier,monospace" font-size="11.00">Venue</text>
</g>
<!-- \\eStadium\\Baseball\\IVenue -->
<g id="node15" class="node"><title>\\eStadium\\Baseball\\IVenue</title>
<polygon fill="none" stroke="black" points="252.5,-500 195.5,-500 195.5,-464 252.5,-464 252.5,-500"/>
<text text-anchor="middle" x="224" y="-479.2" font-family="Courier,monospace" font-size="11.00">IVenue</text>
</g>
<!-- \\eStadium\\Baseball\\Venue&#45;&gt;\\eStadium\\Baseball\\IVenue -->
<g id="edge2" class="edge"><title>\\eStadium\\Baseball\\Venue&#45;&gt;\\eStadium\\Baseball\\IVenue</title>
<path fill="none" stroke="black" stroke-dasharray="1,5" d="M383.886,-482C352.34,-482 299.019,-482 262.937,-482"/>
<polygon fill="none" stroke="black" points="262.793,-478.5 252.793,-482 262.793,-485.5 262.793,-478.5"/>
</g>
<!-- \\eStadium\\Baseball\\PlayerFormation -->
<g id="node3" class="node"><title>\\eStadium\\Baseball\\PlayerFormation</title>
<polygon fill="none" stroke="black" points="470,-446 352,-446 352,-410 470,-410 470,-446"/>
<text text-anchor="middle" x="411" y="-425.2" font-family="Courier,monospace" font-size="11.00">PlayerFormation</text>
</g>
<!-- \\eStadium\\Baseball\\PlayerFormation&#45;&gt;\\eStadium\\Baseball\\Player -->
<g id="edge3" class="edge"><title>\\eStadium\\Baseball\\PlayerFormation&#45;&gt;\\eStadium\\Baseball\\Player</title>
<path fill="none" stroke="black" d="M351.972,-428C322.915,-428 288.561,-428 262.919,-428"/>
<polygon fill="none" stroke="black" points="262.853,-424.5 252.853,-428 262.853,-431.5 262.853,-424.5"/>
</g>
<!-- \\eStadium\\Baseball\\XmlFeedParser -->
<g id="node4" class="node"><title>\\eStadium\\Baseball\\XmlFeedParser</title>
<polygon fill="none" stroke="black" points="463,-392 359,-392 359,-356 463,-356 463,-392"/>
<text text-anchor="middle" x="411" y="-371.2" font-family="Courier,monospace" font-size="11.00">XmlFeedParser</text>
</g>
<!-- \\eStadium\\Baseball\\Game -->
<g id="node5" class="node"><title>\\eStadium\\Baseball\\Game</title>
<polygon fill="none" stroke="black" points="438,-338 384,-338 384,-302 438,-302 438,-338"/>
<text text-anchor="middle" x="411" y="-317.2" font-family="Courier,monospace" font-size="11.00">Game</text>
</g>
<!-- \\eStadium\\Baseball\\IGame -->
<g id="node11" class="node"><title>\\eStadium\\Baseball\\IGame</title>
<polygon fill="none" stroke="black" points="251,-338 197,-338 197,-302 251,-302 251,-338"/>
<text text-anchor="middle" x="224" y="-317.2" font-family="Courier,monospace" font-size="11.00">IGame</text>
</g>
<!-- \\eStadium\\Baseball\\Game&#45;&gt;\\eStadium\\Baseball\\IGame -->
<g id="edge4" class="edge"><title>\\eStadium\\Baseball\\Game&#45;&gt;\\eStadium\\Baseball\\IGame</title>
<path fill="none" stroke="black" stroke-dasharray="1,5" d="M383.886,-320C351.886,-320 297.482,-320 261.393,-320"/>
<polygon fill="none" stroke="black" points="261.28,-316.5 251.28,-320 261.28,-323.5 261.28,-316.5"/>
</g>
<!-- \\eStadium\\Baseball\\TeamFormation -->
<g id="node6" class="node"><title>\\eStadium\\Baseball\\TeamFormation</title>
<polygon fill="none" stroke="black" points="463,-284 359,-284 359,-248 463,-248 463,-284"/>
<text text-anchor="middle" x="411" y="-263.2" font-family="Courier,monospace" font-size="11.00">TeamFormation</text>
</g>
<!-- \\eStadium\\Baseball\\ITeamFormation -->
<g id="node16" class="node"><title>\\eStadium\\Baseball\\ITeamFormation</title>
<polygon fill="none" stroke="black" points="279.5,-284 168.5,-284 168.5,-248 279.5,-248 279.5,-284"/>
<text text-anchor="middle" x="224" y="-263.2" font-family="Courier,monospace" font-size="11.00">ITeamFormation</text>
</g>
<!-- \\eStadium\\Baseball\\TeamFormation&#45;&gt;\\eStadium\\Baseball\\ITeamFormation -->
<g id="edge5" class="edge"><title>\\eStadium\\Baseball\\TeamFormation&#45;&gt;\\eStadium\\Baseball\\ITeamFormation</title>
<path fill="none" stroke="black" stroke-dasharray="1,5" d="M358.958,-266C337.627,-266 312.586,-266 289.963,-266"/>
<polygon fill="none" stroke="black" points="289.761,-262.5 279.761,-266 289.761,-269.5 289.761,-262.5"/>
</g>
<!-- \\eStadium\\Baseball\\Team -->
<g id="node7" class="node"><title>\\eStadium\\Baseball\\Team</title>
<polygon fill="none" stroke="black" points="438,-230 384,-230 384,-194 438,-194 438,-230"/>
<text text-anchor="middle" x="411" y="-209.2" font-family="Courier,monospace" font-size="11.00">Team</text>
</g>
<!-- \\eStadium\\Baseball\\ITeam -->
<g id="node14" class="node"><title>\\eStadium\\Baseball\\ITeam</title>
<polygon fill="none" stroke="black" points="251,-230 197,-230 197,-194 251,-194 251,-230"/>
<text text-anchor="middle" x="224" y="-209.2" font-family="Courier,monospace" font-size="11.00">ITeam</text>
</g>
<!-- \\eStadium\\Baseball\\Team&#45;&gt;\\eStadium\\Baseball\\ITeam -->
<g id="edge6" class="edge"><title>\\eStadium\\Baseball\\Team&#45;&gt;\\eStadium\\Baseball\\ITeam</title>
<path fill="none" stroke="black" stroke-dasharray="1,5" d="M383.886,-212C351.886,-212 297.482,-212 261.393,-212"/>
<polygon fill="none" stroke="black" points="261.28,-208.5 251.28,-212 261.28,-215.5 261.28,-208.5"/>
</g>
<!-- \\eStadium\\Baseball\\GameBuilder -->
<g id="node8" class="node"><title>\\eStadium\\Baseball\\GameBuilder</title>
<polygon fill="none" stroke="black" points="456.5,-176 365.5,-176 365.5,-140 456.5,-140 456.5,-176"/>
<text text-anchor="middle" x="411" y="-155.2" font-family="Courier,monospace" font-size="11.00">GameBuilder</text>
</g>
<!-- \\eStadium\\Baseball\\IGameBuilder -->
<g id="node12" class="node"><title>\\eStadium\\Baseball\\IGameBuilder</title>
<polygon fill="none" stroke="black" points="273,-176 175,-176 175,-140 273,-140 273,-176"/>
<text text-anchor="middle" x="224" y="-155.2" font-family="Courier,monospace" font-size="11.00">IGameBuilder</text>
</g>
<!-- \\eStadium\\Baseball\\GameBuilder&#45;&gt;\\eStadium\\Baseball\\IGameBuilder -->
<g id="edge7" class="edge"><title>\\eStadium\\Baseball\\GameBuilder&#45;&gt;\\eStadium\\Baseball\\IGameBuilder</title>
<path fill="none" stroke="black" stroke-dasharray="1,5" d="M365.217,-158C340.671,-158 309.954,-158 283.53,-158"/>
<polygon fill="none" stroke="black" points="283.259,-154.5 273.259,-158 283.259,-161.5 283.259,-154.5"/>
</g>
<!-- \\eStadium\\Baseball\\Configuration -->
<g id="node9" class="node"><title>\\eStadium\\Baseball\\Configuration</title>
<polygon fill="none" stroke="black" points="463,-122 359,-122 359,-86 463,-86 463,-122"/>
<text text-anchor="middle" x="411" y="-101.2" font-family="Courier,monospace" font-size="11.00">Configuration</text>
</g>
<!-- \\eStadium\\Baseball\\VenueBuilder -->
<g id="node10" class="node"><title>\\eStadium\\Baseball\\VenueBuilder</title>
<polygon fill="none" stroke="black" points="460,-68 362,-68 362,-32 460,-32 460,-68"/>
<text text-anchor="middle" x="411" y="-47.2" font-family="Courier,monospace" font-size="11.00">VenueBuilder</text>
</g>
</g>
</svg>
